<svg width="190" height="200" viewBox="0 0 190 200" fill="none" xmlns="http://www.w3.org/2000/svg">
<path d="M16.3412 52.2167C17.8662 50.1667 19.8746 47.3917 21.4829 45.4083C26.2996 39.9417 26.9246 39.225 31.3079 35.1833C32.6079 34.1167 34.1496 32.8333 35.6579 31.625C24.5329 41.0417 23.1162 51.4667 33.3246 57.9083C33.3079 57.9083 33.3079 57.9083 33.3079 57.925C47.5829 66.525 78.8662 64.6667 103.55 53.65C127.458 42.9833 136.283 27.725 124.483 18.6583C114.125 16.7167 101.775 16.4917 88.7079 18.2417L87.3496 16L88.4746 12.2833C96.1579 11.5917 103.458 11.7583 109.758 12.8333C111.283 13.0917 113.291 13.5333 114.791 13.85C117.691 14.5583 119.266 14.9833 121.158 15.5917C123.091 16.1667 124.741 16.7417 127.616 17.8083C130.433 18.9167 131.65 19.4167 133.908 20.5417C136.437 21.6955 138.894 23.0007 141.266 24.45C160.066 36.275 148.375 57.85 115.2 72.6333C82.1162 87.3667 39.9579 89.6833 21.0662 78C21.0579 77.9833 21.0329 77.9667 20.9829 77.95H21.0162C10.6996 71.4167 9.61624 61.9333 16.3412 52.2167ZM102.416 134.883L102.15 121.6L92.7079 111.1C61.5162 118.167 30.8579 116.65 13.8079 106.608C13.7496 106.542 13.6079 106.475 13.5496 106.408C3.89957 100.467 1.51624 92.8 2.24124 84.4667C-0.0170916 96.6583 -0.200425 101.058 0.124575 111.492C0.524575 118.025 4.29958 124.05 11.8912 128.8L11.9496 128.867C30.1246 140.167 67.9912 142.617 102.416 134.883ZM141.791 150.092C97.7663 167.75 42.6662 168.792 18.7329 152.45C21.3176 158.766 24.8344 164.66 29.1662 169.933C51.1329 184.933 101.708 183.975 142.1 167.767C165.741 158.292 180.658 145.683 184.575 133.867L185.675 130.308C188.283 121.292 188.775 113.783 189.191 107.1C188.716 121.608 171.625 138.108 141.791 150.092ZM44.6079 184.1C45.9912 185.417 50.3412 190.758 72.3829 196.658C78.3412 197.975 93.3412 202.2 121.05 196.058L121.216 193.533L119.025 190.1C93.3162 196.183 64.7579 194.15 44.6079 184.1ZM108.225 79.025L131.633 96.7667C131.633 96.7667 136.641 100.375 131.916 102.908C127.208 105.417 115.116 111.558 115.116 111.558L103.175 107.1L97.1829 109.767L107.75 118.942L107.833 133.217L114.041 130.458L118.158 118.4C118.158 118.4 130.8 113.533 135.816 111.7C140.858 109.908 140.183 116.042 140.183 116.042L137.7 145.3L145.95 141.633L159.533 102.158C159.533 102.158 166.733 98.6583 171.8 95.5833C176.858 92.5083 178.591 87.4083 178.591 87.4083C178.591 87.4083 173.658 85.2833 167.975 86.9917C162.291 88.6833 154.883 91.7 154.883 91.7L116.45 75.375L108.225 79.025ZM58.6996 22.8917L74.5912 35.55L78.9329 34.9L70.2829 23.5417C70.2829 23.5417 68.3996 21.1917 70.9329 20.6333C73.4829 20.0667 79.9329 18.75 79.9329 18.75L84.7829 22.625L88.0496 22.1417L84.3496 16.2583L86.2996 9.73333L83.1412 10.1917L79.3996 15.1583C79.3996 15.1583 72.8329 15.775 70.2496 15.9917C67.6496 16.1917 68.7662 13.4 68.7662 13.4L73.7496 0L69.3829 0.641667L57.8829 17.3833C57.8829 17.3833 54.0496 18.0833 51.2746 18.875C48.4912 19.6583 47.0246 21.8083 47.0246 21.8083C47.0246 21.8083 49.0662 23.4583 51.9412 23.4C54.8412 23.3417 58.6996 22.8917 58.6996 22.8917ZM137.241 185.542L126.958 180.167L124.591 180.992L130.683 186.442C130.683 186.442 131.983 187.55 130.616 188.142C129.25 188.725 125.766 190.158 125.766 190.158L122.891 188.875L121.183 189.492L123.575 192.042L123.341 195.767L125.125 195.15L126.458 192.125C126.458 192.125 130.075 191.05 131.516 190.667C132.95 190.275 132.625 191.958 132.625 191.958L131.266 200L133.641 199.175L138.3 188.542C138.3 188.542 140.358 187.733 141.833 186.992C143.308 186.25 143.891 184.883 143.891 184.883C143.891 184.883 142.583 184.167 140.966 184.525C139.341 184.867 137.241 185.542 137.241 185.542Z" fill="white"/>
</svg>
